<?xml version="1.0" encoding="UTF-8" standalone="no"?>
<!DOCTYPE svg PUBLIC "-//W3C//DTD SVG 1.1//EN" "http://www.w3.org/Graphics/SVG/1.1/DTD/svg11.dtd">
<svg width="205" height="154" viewBox="0 0 205 154" fill="none" xmlns="http://www.w3.org/2000/svg">
<path fill-rule="evenodd" clip-rule="evenodd" d="M185.088 41.2946C196.046 41.2946 204.928 30.1651 204.928 19.4327C204.928 8.70033 196.046 0 185.088 0C174.131 0 165.248 8.70033 165.248 19.4327C165.248 30.1651 174.131 41.2946 185.088 41.2946ZM169.71 59.4735C169.71 57.0574 171.876 55.1956 174.333 55.4083C177.84 55.7119 181.432 55.8693 185.088 55.8693C188.862 55.8693 192.567 55.7016 196.18 55.3786C198.642 55.1586 200.817 57.0219 200.817 59.4429V92.8745V135.98C200.817 138.813 197.897 140.752 195.21 139.703L172.286 130.752C170.731 130.145 169.71 128.67 169.71 127.029V92.8745V59.4735ZM14.2274 129.072C20.4671 130.42 26.7986 131.094 33.2218 131.094C41.572 131.094 48.6834 129.971 54.5561 127.724C60.4288 125.477 64.8333 122.466 67.7696 118.692C70.706 114.917 72.1741 110.737 72.1741 106.154C72.1741 100.132 70.5225 95.5034 67.2191 92.2679C64.0075 89.0323 60.2453 86.8303 55.9325 85.6619C51.7115 84.4936 46.5271 83.5499 40.3791 82.8308C36.4334 82.3815 33.543 81.9321 31.7078 81.4827C29.8725 80.9434 28.9549 80.0896 28.9549 78.9212C28.9549 76.5844 32.3501 75.416 39.1404 75.416C45.4258 75.416 51.3038 76.5564 56.7742 78.8371C59.0214 79.774 61.7094 78.8742 62.6477 76.6656L67.9822 64.1087C68.7967 62.1914 67.9862 59.9648 66.0198 59.1884C62.9048 57.9585 59.3588 56.9865 55.382 56.2724C49.9681 55.1938 44.4166 54.6546 38.7274 54.6546C30.5607 54.6546 23.5411 55.778 17.6684 58.025C11.8875 60.2719 7.52886 63.2827 4.59252 67.0575C1.65619 70.8323 0.188017 75.1015 0.188017 79.8649C0.188017 85.8866 1.79383 90.5153 5.00545 93.7508C8.30882 96.9864 12.1169 99.1883 16.4296 100.357C20.7424 101.435 25.9727 102.334 32.1207 103.053C36.1581 103.502 39.0486 103.952 40.792 104.401C42.6273 104.851 43.5449 105.659 43.5449 106.828C43.5449 107.996 42.8108 108.895 41.3426 109.524C39.9662 110.063 37.4887 110.333 33.91 110.333C29.4137 110.333 24.7798 109.749 20.0083 108.58C17.0358 107.853 14.3125 106.95 11.8386 105.874C9.55087 104.878 6.75502 105.765 5.79329 108.028L0.473928 120.55C-0.318566 122.415 0.425122 124.583 2.30978 125.404C5.62578 126.849 9.59831 128.072 14.2274 129.072ZM145.871 59.3731C140.365 56.2274 134.309 54.6546 127.703 54.6546C120.487 54.6546 114.718 56.1527 110.395 59.1489C109.113 60.0371 107.056 59.2136 107.056 57.6759C107.056 56.7519 106.292 56.0027 105.348 56.0027H81.5554C79.2956 56.0027 77.4636 57.7971 77.4636 60.0105V149.988C77.4636 152.822 80.3835 154.76 83.0706 153.711L105.994 144.761C107.55 144.153 108.57 142.679 108.57 141.038V134.292C108.57 130.741 113.423 128.471 116.867 129.579C120.007 130.589 123.619 131.094 127.703 131.094C134.309 131.094 140.365 129.567 145.871 126.511C151.468 123.365 155.873 118.916 159.085 113.164C162.388 107.322 164.04 100.581 164.04 92.9419C164.04 85.3024 162.388 78.5617 159.085 72.7197C155.873 66.8778 151.468 62.4289 145.871 59.3731ZM129.079 103.592C126.785 106.109 123.849 107.367 120.27 107.367C116.691 107.367 113.755 106.109 111.461 103.592C109.167 101.076 108.02 97.5256 108.02 92.9419C108.02 88.3582 109.167 84.8081 111.461 82.2916C113.755 79.6852 116.691 78.382 120.27 78.382C123.849 78.382 126.785 79.6852 129.079 82.2916C131.373 84.8081 132.52 88.3582 132.52 92.9419C132.52 97.5256 131.373 101.076 129.079 103.592Z" fill="white"/>
<path d="M1.51016 26H3.44516V22.325H5.62016C7.61516 22.325 9.01016 20.885 9.01016 18.815C9.01016 16.745 7.61516 15.35 5.62016 15.35H1.51016V26ZM3.44516 20.645V17.015H5.29016C6.38516 17.015 7.04516 17.72 7.04516 18.815C7.04516 19.925 6.38516 20.645 5.26016 20.645H3.44516ZM12.224 26H18.839V24.335H14.159V21.47H17.744V19.805H14.159V17.015H18.599V15.35H12.224V26ZM21.5584 20.6C21.5584 23.735 23.9284 26.18 27.0634 26.18C30.1984 26.18 32.5684 23.735 32.5684 20.6C32.5684 17.555 30.1984 15.17 27.0634 15.17C23.9284 15.17 21.5584 17.555 21.5584 20.6ZM23.5534 20.6C23.5534 18.5 25.1134 16.94 27.0634 16.94C29.0134 16.94 30.5734 18.5 30.5734 20.6C30.5734 22.79 29.0134 24.41 27.0634 24.41C25.1134 24.41 23.5534 22.79 23.5534 20.6ZM36.0395 26H37.9745V22.325H40.1495C42.1445 22.325 43.5395 20.885 43.5395 18.815C43.5395 16.745 42.1445 15.35 40.1495 15.35H36.0395V26ZM37.9745 20.645V17.015H39.8195C40.9145 17.015 41.5745 17.72 41.5745 18.815C41.5745 19.925 40.9145 20.645 39.7895 20.645H37.9745ZM46.7533 26H53.2933V24.335H48.6883V15.35H46.7533V26ZM56.3393 26H62.9543V24.335H58.2743V21.47H61.8593V19.805H58.2743V17.015H62.7143V15.35H56.3393V26ZM71.6146 26H75.4696C77.4346 26 79.1446 25.04 79.1446 22.91C79.1446 21.83 78.5896 20.75 77.4196 20.405V20.375C78.2296 19.94 78.7096 19.085 78.7096 18.095C78.7096 16.34 77.3446 15.35 75.4246 15.35H71.6146V26ZM73.5496 19.7V17.015H75.3946C76.2946 17.015 76.7446 17.57 76.7446 18.335C76.7446 19.1 76.2646 19.7 75.4246 19.7H73.5496ZM73.5496 24.335V21.26H75.6196C76.5946 21.26 77.1646 21.905 77.1646 22.79C77.1646 23.69 76.6096 24.335 75.6196 24.335H73.5496ZM82.7387 26H89.3537V24.335H84.6737V21.47H88.2587V19.805H84.6737V17.015H89.1137V15.35H82.7387V26ZM92.8666 26H94.8016V21.53H99.6766V26H101.612V15.35H99.6766V19.865H94.8016V15.35H92.8666V26ZM105.807 26H107.742V15.35H105.807V26ZM111.936 26H113.871V19.865C113.871 19.235 113.766 18.215 113.766 18.215H113.796C113.796 18.215 114.276 19.25 114.681 19.865L118.716 26H120.636V15.35H118.716V21.5C118.716 22.13 118.821 23.15 118.821 23.15H118.791C118.791 23.15 118.311 22.115 117.906 21.5L113.871 15.35H111.936V26ZM124.832 26H128.462C131.747 26 133.892 24.02 133.892 20.66C133.892 17.3 131.747 15.35 128.462 15.35H124.832V26ZM126.767 24.335V17.015H128.357C130.487 17.015 131.897 18.29 131.897 20.66C131.897 23.06 130.517 24.335 128.357 24.335H126.767Z" fill="white"/>
</svg>
