<svg width="167" height="167" viewBox="0 0 167 167" fill="none" xmlns="http://www.w3.org/2000/svg">
<path d="M1.82737 163.263C2.81935 163.263 3.6235 164.067 3.6235 165.059C3.6235 166.051 2.81935 166.855 1.82737 166.855C0.835402 166.855 0.03125 166.051 0.03125 165.059C0.03125 164.067 0.835402 163.263 1.82737 163.263Z" fill="url(#paint0_radial)"/>
<path d="M1.82737 122.433C2.81935 122.433 3.6235 123.237 3.6235 124.229C3.6235 125.221 2.81935 126.025 1.82737 126.025C0.835402 126.025 0.03125 125.221 0.03125 124.229C0.03125 123.237 0.835402 122.433 1.82737 122.433Z" fill="url(#paint1_radial)"/>
<path d="M1.82737 81.6026C2.81935 81.6026 3.6235 82.4067 3.6235 83.3987C3.6235 84.3907 2.81935 85.1948 1.82737 85.1948C0.835402 85.1948 0.03125 84.3907 0.03125 83.3987C0.03125 82.4067 0.835402 81.6026 1.82737 81.6026Z" fill="url(#paint2_radial)"/>
<path d="M42.6575 163.263C43.6494 163.263 44.4536 164.067 44.4536 165.059C44.4536 166.051 43.6494 166.855 42.6575 166.855C41.6655 166.855 40.8613 166.051 40.8613 165.059C40.8613 164.067 41.6655 163.263 42.6575 163.263Z" fill="url(#paint3_radial)"/>
<path d="M42.6575 122.433C43.6494 122.433 44.4536 123.237 44.4536 124.229C44.4536 125.221 43.6494 126.025 42.6575 126.025C41.6655 126.025 40.8613 125.221 40.8613 124.229C40.8613 123.237 41.6655 122.433 42.6575 122.433Z" fill="url(#paint4_radial)"/>
<path d="M42.6575 81.6026C43.6494 81.6026 44.4536 82.4067 44.4536 83.3987C44.4536 84.3907 43.6494 85.1948 42.6575 85.1948C41.6655 85.1948 40.8613 84.3907 40.8613 83.3987C40.8613 82.4067 41.6655 81.6026 42.6575 81.6026Z" fill="url(#paint5_radial)"/>
<path d="M1.82737 40.7715C2.81935 40.7715 3.6235 41.5757 3.6235 42.5676C3.6235 43.5596 2.81935 44.3638 1.82737 44.3638C0.835402 44.3638 0.03125 43.5596 0.03125 42.5676C0.03125 41.5757 0.835402 40.7715 1.82737 40.7715Z" fill="url(#paint6_radial)"/>
<path d="M42.6575 40.7715C43.6494 40.7715 44.4536 41.5757 44.4536 42.5676C44.4536 43.5596 43.6494 44.3638 42.6575 44.3638C41.6655 44.3638 40.8613 43.5596 40.8613 42.5676C40.8613 41.5757 41.6655 40.7715 42.6575 40.7715Z" fill="url(#paint7_radial)"/>
<path d="M83.4875 163.263C84.4795 163.263 85.2837 164.067 85.2837 165.059C85.2837 166.051 84.4795 166.855 83.4875 166.855C82.4956 166.855 81.6914 166.051 81.6914 165.059C81.6914 164.067 82.4956 163.263 83.4875 163.263Z" fill="url(#paint8_radial)"/>
<path d="M83.4875 122.433C84.4795 122.433 85.2837 123.237 85.2837 124.229C85.2837 125.221 84.4795 126.025 83.4875 126.025C82.4956 126.025 81.6914 125.221 81.6914 124.229C81.6914 123.237 82.4956 122.433 83.4875 122.433Z" fill="url(#paint9_radial)"/>
<path d="M83.4875 81.6026C84.4795 81.6026 85.2837 82.4067 85.2837 83.3987C85.2837 84.3907 84.4795 85.1948 83.4875 85.1948C82.4956 85.1948 81.6914 84.3907 81.6914 83.3987C81.6914 82.4067 82.4956 81.6026 83.4875 81.6026Z" fill="url(#paint10_radial)"/>
<path d="M124.32 163.263C125.312 163.263 126.116 164.067 126.116 165.059C126.116 166.051 125.312 166.855 124.32 166.855C123.328 166.855 122.523 166.051 122.523 165.059C122.523 164.067 123.328 163.263 124.32 163.263Z" fill="url(#paint11_radial)"/>
<path d="M124.32 122.433C125.312 122.433 126.116 123.237 126.116 124.229C126.116 125.221 125.312 126.025 124.32 126.025C123.328 126.025 122.523 125.221 122.523 124.229C122.523 123.237 123.328 122.433 124.32 122.433Z" fill="url(#paint12_radial)"/>
<path d="M124.32 81.6026C125.312 81.6026 126.116 82.4067 126.116 83.3987C126.116 84.3907 125.312 85.1948 124.32 85.1948C123.328 85.1948 122.523 84.3907 122.523 83.3987C122.523 82.4067 123.328 81.6026 124.32 81.6026Z" fill="url(#paint13_radial)"/>
<path d="M83.4875 40.7715C84.4795 40.7715 85.2837 41.5757 85.2837 42.5676C85.2837 43.5596 84.4795 44.3638 83.4875 44.3638C82.4956 44.3638 81.6914 43.5596 81.6914 42.5676C81.6914 41.5757 82.4956 40.7715 83.4875 40.7715Z" fill="url(#paint14_radial)"/>
<path d="M124.32 40.7715C125.312 40.7715 126.116 41.5757 126.116 42.5676C126.116 43.5596 125.312 44.3638 124.32 44.3638C123.328 44.3638 122.523 43.5596 122.523 42.5676C122.523 41.5757 123.328 40.7715 124.32 40.7715Z" fill="url(#paint15_radial)"/>
<path d="M42.6575 0.0596066C43.6494 0.0596066 44.4536 0.863759 44.4536 1.85573C44.4536 2.8477 43.6494 3.65186 42.6575 3.65186C41.6655 3.65186 40.8613 2.8477 40.8613 1.85573C40.8613 0.863759 41.6655 0.0596066 42.6575 0.0596066Z" fill="url(#paint16_radial)"/>
<path d="M83.4875 0.0596066C84.4795 0.0596066 85.2837 0.863759 85.2837 1.85573C85.2837 2.8477 84.4795 3.65186 83.4875 3.65186C82.4956 3.65186 81.6914 2.8477 81.6914 1.85573C81.6914 0.863759 82.4956 0.0596066 83.4875 0.0596066Z" fill="url(#paint17_radial)"/>
<path d="M124.32 0.0596066C125.312 0.0596066 126.116 0.863759 126.116 1.85573C126.116 2.8477 125.312 3.65186 124.32 3.65186C123.328 3.65186 122.523 2.8477 122.523 1.85573C122.523 0.863759 123.328 0.0596066 124.32 0.0596066Z" fill="url(#paint18_radial)"/>
<path d="M165.15 163.263C166.142 163.263 166.946 164.067 166.946 165.059C166.946 166.051 166.142 166.855 165.15 166.855C164.158 166.855 163.354 166.051 163.354 165.059C163.354 164.067 164.158 163.263 165.15 163.263Z" fill="url(#paint19_radial)"/>
<path d="M165.15 122.433C166.142 122.433 166.946 123.237 166.946 124.229C166.946 125.221 166.142 126.025 165.15 126.025C164.158 126.025 163.354 125.221 163.354 124.229C163.354 123.237 164.158 122.433 165.15 122.433Z" fill="url(#paint20_radial)"/>
<path d="M165.15 81.6026C166.142 81.6026 166.946 82.4067 166.946 83.3987C166.946 84.3907 166.142 85.1948 165.15 85.1948C164.158 85.1948 163.354 84.3907 163.354 83.3987C163.354 82.4067 164.158 81.6026 165.15 81.6026Z" fill="url(#paint21_radial)"/>
<path d="M165.15 40.7715C166.142 40.7715 166.946 41.5757 166.946 42.5676C166.946 43.5596 166.142 44.3638 165.15 44.3638C164.158 44.3638 163.354 43.5596 163.354 42.5676C163.354 41.5757 164.158 40.7715 165.15 40.7715Z" fill="url(#paint22_radial)"/>
<defs>
<radialGradient id="paint0_radial" cx="0" cy="0" r="1" gradientUnits="userSpaceOnUse" gradientTransform="translate(4.42993 165.059) rotate(-180) scale(12.6095 4.06545)">
<stop stop-color="white"/>
<stop offset="1" stop-color="white"/>
</radialGradient>
<radialGradient id="paint1_radial" cx="0" cy="0" r="1" gradientUnits="userSpaceOnUse" gradientTransform="translate(4.42993 124.229) rotate(-180) scale(12.6095 4.06545)">
<stop stop-color="white"/>
<stop offset="1" stop-color="white"/>
</radialGradient>
<radialGradient id="paint2_radial" cx="0" cy="0" r="1" gradientUnits="userSpaceOnUse" gradientTransform="translate(4.42993 83.3987) rotate(-180) scale(12.6095 4.06545)">
<stop stop-color="white"/>
<stop offset="1" stop-color="white"/>
</radialGradient>
<radialGradient id="paint3_radial" cx="0" cy="0" r="1" gradientUnits="userSpaceOnUse" gradientTransform="translate(45.26 165.059) rotate(-180) scale(12.6095 4.06545)">
<stop stop-color="white"/>
<stop offset="1" stop-color="white"/>
</radialGradient>
<radialGradient id="paint4_radial" cx="0" cy="0" r="1" gradientUnits="userSpaceOnUse" gradientTransform="translate(45.26 124.229) rotate(-180) scale(12.6095 4.06545)">
<stop stop-color="white"/>
<stop offset="1" stop-color="white"/>
</radialGradient>
<radialGradient id="paint5_radial" cx="0" cy="0" r="1" gradientUnits="userSpaceOnUse" gradientTransform="translate(45.26 83.3987) rotate(-180) scale(12.6095 4.06545)">
<stop stop-color="white"/>
<stop offset="1" stop-color="white"/>
</radialGradient>
<radialGradient id="paint6_radial" cx="0" cy="0" r="1" gradientUnits="userSpaceOnUse" gradientTransform="translate(4.42993 42.5676) rotate(-180) scale(12.6095 4.06545)">
<stop stop-color="white"/>
<stop offset="1" stop-color="white"/>
</radialGradient>
<radialGradient id="paint7_radial" cx="0" cy="0" r="1" gradientUnits="userSpaceOnUse" gradientTransform="translate(45.26 42.5676) rotate(-180) scale(12.6095 4.06545)">
<stop stop-color="white"/>
<stop offset="1" stop-color="white"/>
</radialGradient>
<radialGradient id="paint8_radial" cx="0" cy="0" r="1" gradientUnits="userSpaceOnUse" gradientTransform="translate(86.0901 165.059) rotate(-180) scale(12.6095 4.06545)">
<stop stop-color="white"/>
<stop offset="1" stop-color="white"/>
</radialGradient>
<radialGradient id="paint9_radial" cx="0" cy="0" r="1" gradientUnits="userSpaceOnUse" gradientTransform="translate(86.0901 124.229) rotate(-180) scale(12.6095 4.06545)">
<stop stop-color="white"/>
<stop offset="1" stop-color="white"/>
</radialGradient>
<radialGradient id="paint10_radial" cx="0" cy="0" r="1" gradientUnits="userSpaceOnUse" gradientTransform="translate(86.0901 83.3987) rotate(-180) scale(12.6095 4.06545)">
<stop stop-color="white"/>
<stop offset="1" stop-color="white"/>
</radialGradient>
<radialGradient id="paint11_radial" cx="0" cy="0" r="1" gradientUnits="userSpaceOnUse" gradientTransform="translate(126.922 165.059) rotate(-180) scale(12.6095 4.06545)">
<stop stop-color="white"/>
<stop offset="1" stop-color="white"/>
</radialGradient>
<radialGradient id="paint12_radial" cx="0" cy="0" r="1" gradientUnits="userSpaceOnUse" gradientTransform="translate(126.922 124.229) rotate(-180) scale(12.6095 4.06545)">
<stop stop-color="white"/>
<stop offset="1" stop-color="white"/>
</radialGradient>
<radialGradient id="paint13_radial" cx="0" cy="0" r="1" gradientUnits="userSpaceOnUse" gradientTransform="translate(126.922 83.3987) rotate(-180) scale(12.6095 4.06545)">
<stop stop-color="white"/>
<stop offset="1" stop-color="white"/>
</radialGradient>
<radialGradient id="paint14_radial" cx="0" cy="0" r="1" gradientUnits="userSpaceOnUse" gradientTransform="translate(86.0901 42.5676) rotate(-180) scale(12.6095 4.06545)">
<stop stop-color="white"/>
<stop offset="1" stop-color="white"/>
</radialGradient>
<radialGradient id="paint15_radial" cx="0" cy="0" r="1" gradientUnits="userSpaceOnUse" gradientTransform="translate(126.922 42.5676) rotate(-180) scale(12.6095 4.06545)">
<stop stop-color="white"/>
<stop offset="1" stop-color="white"/>
</radialGradient>
<radialGradient id="paint16_radial" cx="0" cy="0" r="1" gradientUnits="userSpaceOnUse" gradientTransform="translate(45.26 1.85573) rotate(-180) scale(12.6095 4.06545)">
<stop stop-color="white"/>
<stop offset="1" stop-color="white"/>
</radialGradient>
<radialGradient id="paint17_radial" cx="0" cy="0" r="1" gradientUnits="userSpaceOnUse" gradientTransform="translate(86.0901 1.85573) rotate(-180) scale(12.6095 4.06545)">
<stop stop-color="white"/>
<stop offset="1" stop-color="white"/>
</radialGradient>
<radialGradient id="paint18_radial" cx="0" cy="0" r="1" gradientUnits="userSpaceOnUse" gradientTransform="translate(126.922 1.85573) rotate(-180) scale(12.6095 4.06545)">
<stop stop-color="white"/>
<stop offset="1" stop-color="white"/>
</radialGradient>
<radialGradient id="paint19_radial" cx="0" cy="0" r="1" gradientUnits="userSpaceOnUse" gradientTransform="translate(167.752 165.059) rotate(-180) scale(12.6095 4.06545)">
<stop stop-color="white"/>
<stop offset="1" stop-color="white"/>
</radialGradient>
<radialGradient id="paint20_radial" cx="0" cy="0" r="1" gradientUnits="userSpaceOnUse" gradientTransform="translate(167.752 124.229) rotate(-180) scale(12.6095 4.06545)">
<stop stop-color="white"/>
<stop offset="1" stop-color="white"/>
</radialGradient>
<radialGradient id="paint21_radial" cx="0" cy="0" r="1" gradientUnits="userSpaceOnUse" gradientTransform="translate(167.752 83.3987) rotate(-180) scale(12.6095 4.06545)">
<stop stop-color="white"/>
<stop offset="1" stop-color="white"/>
</radialGradient>
<radialGradient id="paint22_radial" cx="0" cy="0" r="1" gradientUnits="userSpaceOnUse" gradientTransform="translate(167.752 42.5676) rotate(-180) scale(12.6095 4.06545)">
<stop stop-color="white"/>
<stop offset="1" stop-color="white"/>
</radialGradient>
</defs>
</svg>
