<svg width="50" height="39" viewBox="0 0 50 39" fill="none" xmlns="http://www.w3.org/2000/svg">
<path fill-rule="evenodd" clip-rule="evenodd" d="M45.1555 10.3518C47.831 10.3518 50 7.56186 50 4.87144C50 2.18102 47.831 0 45.1555 0C42.4799 0 40.3109 2.18102 40.3109 4.87144C40.3109 7.56186 42.4799 10.3518 45.1555 10.3518ZM41.4004 14.9089C41.4004 14.3033 41.9294 13.8366 42.5294 13.8899C43.3857 13.966 44.2626 14.0054 45.1554 14.0054C46.0769 14.0054 46.9815 13.9634 47.8639 13.8824C48.465 13.8273 48.996 14.2944 48.996 14.9013V23.282V34.0877C48.996 34.798 48.2831 35.284 47.6269 35.0209L42.0296 32.7773C41.6497 32.625 41.4004 32.2553 41.4004 31.844V23.282V14.9089ZM3.43491 32.3561C4.95852 32.6941 6.50453 32.863 8.07295 32.863C10.1119 32.863 11.8484 32.5814 13.2823 32.0182C14.7163 31.4549 15.7918 30.7001 16.5088 29.7538C17.2258 28.8076 17.5843 27.7599 17.5843 26.6109C17.5843 25.1013 17.181 23.941 16.3744 23.1299C15.5901 22.3188 14.6715 21.7668 13.6184 21.4739C12.5877 21.181 11.3218 20.9445 9.82061 20.7642C8.85716 20.6516 8.15137 20.5389 7.70325 20.4263C7.25513 20.2911 7.03107 20.077 7.03107 19.7841C7.03107 19.1983 7.86009 18.9055 9.51813 18.9055C11.0529 18.9055 12.4882 19.1913 13.8239 19.7631C14.3727 19.9979 15.029 19.7723 15.2581 19.2187L16.5607 16.0709C16.7596 15.5903 16.5617 15.0321 16.0815 14.8375C15.3209 14.5292 14.455 14.2855 13.484 14.1065C12.162 13.8361 10.8065 13.7009 9.41731 13.7009C7.42318 13.7009 5.70912 13.9826 4.27514 14.5458C2.86356 15.1091 1.79928 15.8638 1.08229 16.8101C0.365298 17.7564 0.00680305 18.8266 0.00680305 20.0207C0.00680305 21.5302 0.398907 22.6906 1.18312 23.5017C1.98973 24.3127 2.91958 24.8647 3.97266 25.1576C5.02574 25.428 6.30288 25.6533 7.80408 25.8336C8.78994 25.9462 9.49573 26.0589 9.92144 26.1715C10.3696 26.2842 10.5936 26.4869 10.5936 26.7798C10.5936 27.0727 10.4144 27.298 10.0559 27.4557C9.71979 27.5909 9.11483 27.6585 8.24099 27.6585C7.1431 27.6585 6.0116 27.5121 4.84649 27.2192C4.12067 27.0367 3.45571 26.8105 2.85162 26.5406C2.29301 26.291 1.61032 26.5133 1.37549 27.0808L0.0766163 30.2196C-0.116894 30.6873 0.0646989 31.2306 0.524892 31.4365C1.33459 31.7989 2.3046 32.1054 3.43491 32.3561ZM35.5795 14.8838C34.2351 14.0952 32.7563 13.7009 31.1431 13.7009C29.3813 13.7009 27.9725 14.0765 26.9169 14.8276C26.604 15.0502 26.1018 14.8438 26.1018 14.4583C26.1018 14.2267 25.915 14.0389 25.6847 14.0389H19.875C19.3232 14.0389 18.8759 14.4887 18.8759 15.0436V37.5994C18.8759 38.3096 19.5888 38.7956 20.245 38.5326L25.8423 36.289C26.2222 36.1367 26.4715 35.767 26.4715 35.3557V33.6645C26.4715 32.7745 27.6564 32.2054 28.4973 32.4831C29.264 32.7364 30.146 32.863 31.1431 32.863C32.7563 32.863 34.2351 32.48 35.5795 31.714C36.9463 30.9254 38.0218 29.8102 38.806 28.3682C39.6126 26.9037 40.0159 25.214 40.0159 23.2989C40.0159 21.3838 39.6126 19.694 38.806 18.2295C38.0218 16.7651 36.9463 15.6498 35.5795 14.8838ZM31.4792 25.9687C30.9191 26.5996 30.2021 26.915 29.3282 26.915C28.4544 26.915 27.7374 26.5996 27.1773 25.9687C26.6171 25.3379 26.337 24.4479 26.337 23.2989C26.337 22.1498 26.6171 21.2599 27.1773 20.629C27.7374 19.9756 28.4544 19.649 29.3282 19.649C30.2021 19.649 30.9191 19.9756 31.4792 20.629C32.0394 21.2599 32.3194 22.1498 32.3194 23.2989C32.3194 24.4479 32.0394 25.3379 31.4792 25.9687Z" fill="url(#paint0_radial)"/>
<defs>
<radialGradient id="paint0_radial" cx="0" cy="0" r="1" gradientUnits="userSpaceOnUse" gradientTransform="translate(25 47.2716) rotate(-90) scale(135.512 56.5864)">
<stop stop-color="#00B854"/>
<stop offset="1" stop-color="#00853C"/>
</radialGradient>
</defs>
</svg>
